<svg width="44" height="44" viewBox="0 0 44 44" fill="none" xmlns="http://www.w3.org/2000/svg">
<path d="M22.23 41.46C32.8504 41.46 41.46 32.8504 41.46 22.23C41.46 11.6095 32.8504 3 22.23 3C11.6096 3 3 11.6095 3 22.23C3 32.8504 11.6096 41.46 22.23 41.46Z" stroke="black" stroke-width="5" stroke-miterlimit="10"/>
<path d="M28.5002 22.84C28.0752 22.2117 27.4876 21.7106 26.8002 21.39C26.0369 21.0392 25.2295 20.7935 24.4002 20.6599V18.35C24.8501 18.6446 25.3835 18.785 25.9202 18.75H27.0502C27.2404 18.7555 27.4296 18.7188 27.604 18.6426C27.7785 18.5663 27.9339 18.4525 28.0591 18.3091C28.1843 18.1657 28.2762 17.9963 28.3283 17.8132C28.3803 17.6301 28.3912 17.4378 28.3602 17.25C28.2525 16.8201 28.0434 16.4223 27.7502 16.09C27.1728 15.3458 26.3908 14.7863 25.5002 14.48C25.1415 14.3552 24.7737 14.2582 24.4002 14.1899V12.7999C24.3619 12.2226 24.1055 11.6815 23.6831 11.2861C23.2607 10.8908 22.7037 10.6709 22.1252 10.6709C21.5466 10.6709 20.9897 10.8908 20.5672 11.2861C20.1448 11.6815 19.8885 12.2226 19.8502 12.7999V14.22C19.5129 14.2784 19.1791 14.3552 18.8502 14.45C17.8882 14.7472 17.029 15.3085 16.3702 16.0699C15.7083 16.925 15.378 17.9905 15.4402 19.0699C15.3948 19.9607 15.6329 20.8429 16.1202 21.59C16.5848 22.24 17.2174 22.7515 17.9502 23.0699C18.5464 23.3332 19.1657 23.5408 19.8002 23.6899V26.23C19.5827 26.0392 19.3288 25.8947 19.0537 25.8053C18.7786 25.7159 18.4882 25.6835 18.2002 25.71H16.6102C16.4202 25.7041 16.2313 25.7407 16.0572 25.817C15.8831 25.8933 15.7282 26.0074 15.6037 26.151C15.4793 26.2946 15.3883 26.4643 15.3375 26.6475C15.2868 26.8306 15.2774 27.0227 15.3102 27.21C15.4314 27.578 15.6253 27.9181 15.8802 28.21C16.4668 28.9889 17.2653 29.5825 18.1802 29.9199C18.7028 30.129 19.2457 30.2832 19.8002 30.38V31.6799C19.7795 31.9914 19.823 32.3037 19.928 32.5977C20.033 32.8916 20.1972 33.1609 20.4105 33.3888C20.6238 33.6167 20.8815 33.7984 21.1679 33.9226C21.4542 34.0468 21.7631 34.1108 22.0752 34.1108C22.3873 34.1108 22.6961 34.0468 22.9824 33.9226C23.2688 33.7984 23.5266 33.6167 23.7399 33.3888C23.9532 33.1609 24.1174 32.8916 24.2223 32.5977C24.3273 32.3037 24.3708 31.9914 24.3502 31.6799V30.3099C24.8393 30.2212 25.3183 30.0838 25.7802 29.8999C26.7574 29.541 27.6064 28.9008 28.2202 28.0599C28.7935 27.2184 29.0873 26.2178 29.0602 25.2C29.1152 24.3749 28.92 23.5524 28.5002 22.84ZM24.4002 26.24V25.34C24.4511 25.4642 24.4815 25.596 24.4902 25.73C24.4912 25.904 24.4607 26.0768 24.4002 26.24Z" fill="black"/>
</svg>
