<svg width="52" height="53" viewBox="0 0 52 53" fill="none" xmlns="http://www.w3.org/2000/svg">
<path d="M49 21.2949L45.2167 28.2614L47.6603 35.8173L40.4902 39.2148L38.0359 46.76L30.2442 45.3024L23.8243 49.9646L18.3691 44.1985H10.438L9.40913 36.3318L3 31.6696L6.78332 24.7032L4.3397 17.158L11.5098 13.7498L13.9641 6.20456L21.7558 7.66214L28.1757 3L33.6309 8.76608H41.562L42.5909 16.6328L49 21.2949Z" stroke="black" stroke-width="5" stroke-linecap="round" stroke-linejoin="round"/>
<path d="M16.7722 24.8103C15.9348 23.7991 15.4766 22.5274 15.4766 21.2145C15.4766 19.9016 15.9348 18.6299 16.7722 17.6188C17.7095 16.7503 18.9401 16.2677 20.2179 16.2677C21.4957 16.2677 22.7264 16.7503 23.6636 17.6188C24.501 18.6299 24.9593 19.9016 24.9593 21.2145C24.9593 22.5274 24.501 23.7991 23.6636 24.8103C22.7299 25.6858 21.4979 26.1732 20.2179 26.1732C18.9379 26.1732 17.7059 25.6858 16.7722 24.8103ZM20.0732 35.6244C19.4837 35.6244 19.2587 35.2171 19.5695 34.7134L24.4674 26.8145C24.8564 26.2079 25.2141 25.5819 25.5392 24.9389L28.926 17.7259C29.0771 17.4462 29.2973 17.2098 29.5655 17.0391C29.8338 16.8684 30.1412 16.7691 30.4586 16.7507H33.0094C33.5989 16.7507 33.8132 17.1579 33.5024 17.6509L28.2936 25.7749C27.9181 26.3816 27.5816 27.0117 27.2862 27.6612L24.1995 34.6491C24.0544 34.9292 23.8386 35.1665 23.5735 35.3375C23.3085 35.5086 23.0033 35.6075 22.6883 35.6244H20.0732ZM21.0699 22.6024C21.2976 22.1747 21.4051 21.6932 21.3808 21.2092C21.4101 20.7192 21.3064 20.2303 21.0807 19.7944C20.9946 19.6429 20.8699 19.5169 20.7193 19.4292C20.5687 19.3415 20.3976 19.2953 20.2233 19.2953C20.049 19.2953 19.8779 19.3415 19.7272 19.4292C19.5766 19.5169 19.4519 19.6429 19.3659 19.7944C19.1468 20.2362 19.0471 20.7276 19.0765 21.2199C19.0538 21.7037 19.1611 22.1848 19.3873 22.6132C19.4678 22.7683 19.5893 22.8983 19.7386 22.989C19.8879 23.0798 20.0593 23.1278 20.234 23.1278C20.4087 23.1278 20.5801 23.0798 20.7294 22.989C20.8787 22.8983 21.0002 22.7683 21.0807 22.6132L21.0699 22.6024ZM29.1296 34.7991C28.2914 33.7862 27.8327 32.5127 27.8327 31.198C27.8327 29.8833 28.2914 28.6097 29.1296 27.5969C30.0651 26.7291 31.294 26.2468 32.57 26.2468C33.846 26.2468 35.0748 26.7291 36.0103 27.5969C36.8428 28.6124 37.2977 29.8849 37.2977 31.198C37.2977 32.5111 36.8428 33.7836 36.0103 34.7991C35.0748 35.6669 33.846 36.1491 32.57 36.1491C31.294 36.1491 30.0651 35.6669 29.1296 34.7991ZM33.4167 32.5805C33.6469 32.1537 33.7545 31.6715 33.7275 31.1873C33.7579 30.6972 33.6542 30.2081 33.4274 29.7725C33.3469 29.6191 33.2247 29.4914 33.075 29.4042C32.9252 29.317 32.7539 29.2738 32.5807 29.2796C32.4053 29.2765 32.2324 29.322 32.0811 29.4108C31.9299 29.4997 31.806 29.6286 31.7233 29.7833C31.4931 30.214 31.3857 30.6996 31.4125 31.1873C31.3898 31.6711 31.4971 32.1522 31.7233 32.5805C31.8063 32.7326 31.9287 32.8596 32.0777 32.948C32.2267 33.0364 32.3967 33.0831 32.57 33.0831C32.7432 33.0831 32.9133 33.0364 33.0622 32.948C33.2112 32.8596 33.3337 32.7326 33.4167 32.5805Z" fill="black"/>
</svg>
