<svg width="60" height="60" viewBox="0 0 60 60" fill="none" xmlns="http://www.w3.org/2000/svg">
<path d="M7.5 25.6667C7.5 22.9954 7.5 21.6597 8.32986 20.8299C9.15973 20 10.4954 20 13.1667 20H46.8333C49.5046 20 50.8403 20 51.6701 20.8299C52.5 21.6597 52.5 22.9954 52.5 25.6667V28.75C52.5 29.6024 52.5 30.0286 52.409 30.3789C52.1506 31.3737 51.3737 32.1506 50.3789 32.409C50.0286 32.5 49.6024 32.5 48.75 32.5V32.5C47.8976 32.5 47.4714 32.5 47.1211 32.591C46.1263 32.8494 45.3494 33.6263 45.091 34.6211C45 34.9714 45 35.3976 45 36.25V44.3333C45 47.0046 45 48.3403 44.1701 49.1701C43.3403 50 42.0046 50 39.3333 50H20.6667C17.9954 50 16.6597 50 15.8299 49.1701C15 48.3403 15 47.0046 15 44.3333V36.25C15 35.3976 15 34.9714 14.909 34.6211C14.6506 33.6263 13.8737 32.8494 12.8789 32.591C12.5286 32.5 12.1024 32.5 11.25 32.5V32.5C10.3976 32.5 9.97141 32.5 9.62111 32.409C8.62625 32.1506 7.84935 31.3737 7.59098 30.3789C7.5 30.0286 7.5 29.6024 7.5 28.75V25.6667Z" stroke="black" stroke-width="5.66667"/>
<path d="M12.5 32.5H47.5" stroke="black" stroke-width="5.66667" stroke-linecap="round"/>
<path d="M30 17.5L30 50" stroke="black" stroke-width="5.66667" stroke-linecap="round"/>
<path d="M30 17.5L27.8036 15.3036C25.1378 12.6378 21.888 10.6293 18.3115 9.43717V9.43717C15.4525 8.48416 12.5 10.6122 12.5 13.6259V14.0811C12.5 16.1228 13.8065 17.9355 15.7434 18.5811L20 20" stroke="black" stroke-width="5.66667" stroke-linecap="round"/>
<path d="M30 17.5L32.1964 15.3036C34.8622 12.6378 38.112 10.6293 41.6885 9.43717V9.43717C44.5475 8.48416 47.5 10.6122 47.5 13.6259V14.0811C47.5 16.1228 46.1935 17.9355 44.2566 18.5811L40 20" stroke="black" stroke-width="5.66667" stroke-linecap="round"/>
</svg>
