<svg width="158" height="152" viewBox="0 0 158 152" fill="none" xmlns="http://www.w3.org/2000/svg">
<path d="M79 25.3333L61.2303 53.8248C60.2672 55.369 59.7857 56.1411 59.7857 57C59.7857 57.8588 60.2672 58.631 61.2303 60.1752L78.5758 87.9864C78.7661 88.2916 78.8613 88.4442 79 88.4442C79.1387 88.4442 79.2339 88.2916 79.4243 87.9864L96.7697 60.1752C97.7328 58.631 98.2143 57.8588 98.2143 57C98.2143 56.1411 97.7328 55.369 96.7697 53.8248L79 25.3333ZM79 25.3333V12.6667" stroke="#A76B09" stroke-width="2"/>
<path d="M132.722 79.7878L97.9221 79.2246C96.1754 79.1964 95.3021 79.1822 94.5877 79.5791C93.8732 79.9759 93.4493 80.7105 92.6014 82.1799L76.1269 110.729C75.9405 111.052 75.8473 111.214 75.9209 111.337C75.9944 111.459 76.1864 111.462 76.5704 111.468L110.508 112.018C112.255 112.046 113.128 112.06 113.843 111.663C114.557 111.266 114.981 110.532 115.829 109.062L132.722 79.7878ZM132.722 79.7878L144.125 73.4545" stroke="#A76B09" stroke-width="2"/>
<path d="M25.2782 79.7878L60.0779 79.2246C61.8246 79.1964 62.6979 79.1822 63.4123 79.5791C64.1268 79.9759 64.5507 80.7105 65.3986 82.1799L81.8731 110.729C82.0595 111.052 82.1527 111.214 82.0791 111.337C82.0056 111.459 81.8136 111.462 81.4296 111.468L47.4917 112.018C45.7451 112.046 44.8718 112.06 44.1573 111.663C43.4429 111.266 43.0189 110.532 42.1711 109.062L25.2782 79.7878ZM25.2782 79.7878L13.8755 73.4545" stroke="#A76B09" stroke-width="2"/>
<path d="M79 95V142.5" stroke="#A76B09" stroke-width="2"/>
</svg>
