<?xml version="1.0" encoding="UTF-8"?>
<!-- Generator: visioncortex VTracer 0.6.3 -->
<svg version="1.1" xmlns="http://www.w3.org/2000/svg" width="1280" height="1280">
<path d="M0 0 C0.77 0 1.53 0 2.32 0.01 C3.13 0.01 3.94 0 4.77 0 C7.51 -0 10.24 0 12.97 0 C14.92 0 16.87 0 18.81 -0 C24.12 -0.01 29.43 -0 34.74 -0 C40.29 0 45.83 -0 51.37 -0 C60.69 -0 70 -0 79.31 0 C90.09 0.01 100.87 0.01 111.65 0 C120.89 -0 130.13 -0 139.37 -0 C144.9 0 150.42 0 155.95 -0 C161.14 -0.01 166.34 -0 171.53 0 C173.44 0 175.36 0 177.27 0 C179.87 -0 182.46 0 185.06 0.01 C186.21 0 186.21 0 187.39 0 C192.58 0.02 192.58 0.02 193.69 1.13 C194.7 7.52 194.85 13.99 194.9 20.44 C194.91 21.31 194.92 22.18 194.93 23.07 C194.96 25.91 194.98 28.74 195.01 31.58 C195.03 33.56 195.05 35.54 195.07 37.52 C195.13 42.71 195.18 47.89 195.23 53.08 C195.28 58.38 195.33 63.68 195.39 68.99 C195.49 79.37 195.6 89.75 195.69 100.13 C197.51 100.13 197.51 100.13 199.36 100.12 C210.75 100.08 222.14 100.05 233.53 100.03 C239.39 100.02 245.24 100.01 251.1 99.98 C256.75 99.96 262.39 99.95 268.04 99.94 C270.2 99.94 272.36 99.93 274.52 99.92 C277.53 99.91 280.55 99.91 283.56 99.91 C284.46 99.9 285.36 99.89 286.29 99.88 C292.47 99.91 292.47 99.91 294.69 102.13 C294.9 104.7 294.98 107.17 294.97 109.74 C294.98 110.53 294.98 111.33 294.99 112.15 C295.01 114.82 295.01 117.49 295.01 120.17 C295.02 122.08 295.03 123.99 295.04 125.9 C295.07 131.11 295.09 136.31 295.1 141.51 C295.11 146.94 295.14 152.37 295.17 157.81 C295.21 168.1 295.25 178.39 295.28 188.68 C295.32 200.4 295.37 212.11 295.42 223.83 C295.52 247.93 295.61 272.03 295.69 296.13 C296.24 296.14 296.78 296.14 297.35 296.15 C299.02 296.16 300.7 296.17 302.37 296.19 C304.37 296.2 306.36 296.22 308.35 296.23 C313.87 296.27 319.38 296.32 324.9 296.36 C335.31 296.44 345.71 296.52 356.12 296.59 C360.21 296.62 364.3 296.65 368.38 296.69 C370.4 296.71 372.41 296.73 374.42 296.74 C377.47 296.75 380.52 296.78 383.56 296.81 C384.91 296.82 384.91 296.82 386.29 296.82 C392.47 296.91 392.47 296.91 394.69 299.13 C394.91 302.18 395 305.13 395.01 308.17 C395.02 309.11 395.03 310.05 395.04 311.01 C395.07 314.12 395.09 317.22 395.11 320.33 C395.13 322.48 395.15 324.63 395.17 326.78 C395.22 332.44 395.26 338.11 395.29 343.77 C395.33 349.55 395.39 355.33 395.44 361.11 C395.53 372.45 395.62 383.79 395.69 395.13 C397.21 395.13 397.21 395.13 398.76 395.13 C423.39 395.08 448.02 395.05 472.65 395.03 C484.56 395.02 496.47 395.01 508.37 394.98 C518.75 394.96 529.13 394.95 539.51 394.95 C545 394.94 550.5 394.94 556 394.92 C561.17 394.91 566.34 394.9 571.51 394.91 C573.41 394.91 575.31 394.9 577.21 394.9 C579.8 394.89 582.39 394.89 584.97 394.89 C586.11 394.88 586.11 394.88 587.28 394.88 C592.47 394.91 592.47 394.91 594.69 397.13 C594.91 400.24 595 403.25 595.01 406.36 C595.02 407.31 595.03 408.27 595.04 409.25 C595.07 412.43 595.09 415.6 595.11 418.77 C595.13 420.96 595.15 423.16 595.17 425.35 C595.22 431.13 595.26 436.92 595.29 442.7 C595.33 448.6 595.39 454.5 595.44 460.4 C595.53 471.97 595.62 483.55 595.69 495.13 C596.91 495.13 598.12 495.13 599.37 495.13 C610.77 495.11 622.18 495.09 633.58 495.08 C639.45 495.08 645.31 495.07 651.17 495.06 C656.83 495.05 662.48 495.04 668.14 495.04 C670.3 495.04 672.46 495.03 674.62 495.03 C677.64 495.02 680.66 495.02 683.68 495.02 C684.58 495.02 685.48 495.01 686.41 495.01 C692.58 495.02 692.58 495.02 693.69 496.13 C694.7 502.52 694.85 508.99 694.9 515.44 C694.91 516.32 694.92 517.21 694.93 518.12 C694.96 520.94 694.99 523.76 695.01 526.58 C695.03 528.34 695.05 530.09 695.07 531.85 C695.11 535.76 695.15 539.66 695.18 543.57 C695.27 552.94 695.37 562.32 695.46 571.69 C695.51 576.6 695.56 581.5 695.61 586.4 C695.62 588.1 695.64 589.8 695.66 591.5 C695.67 593.3 695.67 593.3 695.69 595.13 C696.6 595.13 697.52 595.13 698.45 595.13 C720.59 595.11 742.74 595.09 764.88 595.08 C775.58 595.08 786.29 595.07 797 595.06 C806.32 595.05 815.65 595.04 824.98 595.04 C829.92 595.04 834.87 595.04 839.81 595.03 C844.45 595.02 849.1 595.02 853.75 595.02 C855.46 595.02 857.17 595.02 858.88 595.01 C861.2 595.01 863.53 595.01 865.85 595.01 C867.81 595.01 867.81 595.01 869.81 595.01 C872.69 595.13 872.69 595.13 873.69 596.13 C874.7 602.49 874.84 608.91 874.82 615.33 C874.82 616.19 874.83 617.05 874.83 617.93 C874.83 620.73 874.83 623.53 874.83 626.33 C874.83 628.28 874.83 630.24 874.83 632.19 C874.83 636.27 874.83 640.35 874.82 644.43 C874.82 649.67 874.82 654.91 874.83 660.15 C874.83 664.18 874.83 668.21 874.83 672.24 C874.83 674.17 874.83 676.1 874.83 678.04 C874.83 680.72 874.83 683.41 874.82 686.1 C874.82 686.9 874.83 687.71 874.83 688.54 C874.81 694.02 874.81 694.02 873.69 695.13 C871.23 695.23 868.79 695.26 866.33 695.25 C865.15 695.25 865.15 695.25 863.95 695.25 C861.41 695.25 858.86 695.24 856.31 695.23 C854.75 695.23 853.18 695.23 851.61 695.23 C845.78 695.22 839.96 695.21 834.13 695.2 C821.12 695.18 808.1 695.15 794.69 695.13 C794.69 725.82 794.69 756.51 794.69 788.13 C761.36 788.13 728.03 788.13 693.69 788.13 C693.36 724.77 693.03 661.41 692.69 596.13 C660.02 595.8 627.35 595.47 593.69 595.13 C593.36 562.46 593.03 529.79 592.69 496.13 C527.02 495.8 461.35 495.47 393.69 495.13 C393.69 463.45 393.69 431.77 393.69 399.13 C376.3 399.1 376.3 399.1 358.91 399.08 C351.82 399.08 344.73 399.07 337.64 399.06 C331.93 399.05 326.21 399.04 320.5 399.04 C318.32 399.04 316.13 399.03 313.95 399.03 C310.9 399.02 307.85 399.02 304.8 399.02 C303.89 399.02 302.98 399.01 302.04 399.01 C298.05 398.61 298.05 398.61 294.69 400.13 C294.61 402.55 294.59 404.94 294.61 407.35 C294.61 408.12 294.62 408.88 294.62 409.67 C294.63 412.25 294.65 414.83 294.67 417.41 C294.68 419.26 294.69 421.1 294.7 422.94 C294.73 427.96 294.76 432.98 294.79 438 C294.83 443.23 294.86 448.47 294.89 453.71 C294.94 463.64 295 473.57 295.07 483.49 C295.14 494.79 295.2 506.09 295.27 517.39 C295.4 540.64 295.55 563.89 295.69 587.13 C297.21 587.13 297.21 587.13 298.76 587.13 C323.39 587.08 348.02 587.05 372.65 587.03 C384.56 587.02 396.47 587.01 408.37 586.98 C418.75 586.96 429.13 586.95 439.51 586.95 C445 586.94 450.5 586.94 456 586.92 C461.17 586.91 466.34 586.9 471.51 586.91 C473.41 586.91 475.31 586.9 477.21 586.9 C479.8 586.89 482.39 586.89 484.97 586.89 C486.11 586.88 486.11 586.88 487.28 586.88 C492.47 586.91 492.47 586.91 494.69 589.13 C494.91 592.21 495 595.19 495.01 598.27 C495.02 599.21 495.03 600.16 495.04 601.13 C495.07 604.27 495.09 607.41 495.11 610.55 C495.13 612.72 495.15 614.89 495.17 617.06 C495.22 622.79 495.26 628.51 495.29 634.24 C495.34 641.1 495.4 647.96 495.46 654.83 C495.55 665.26 495.62 675.7 495.69 686.13 C527.37 686.46 559.05 686.79 591.69 687.13 C591.69 720.46 591.69 753.79 591.69 788.13 C558.69 788.13 525.69 788.13 491.69 788.13 C491.69 755.46 491.69 722.79 491.69 689.13 C459.68 689.13 427.67 689.13 394.69 689.13 C394.69 721.8 394.69 754.47 394.69 788.13 C361.36 788.13 328.03 788.13 293.69 788.13 C293.69 722.46 293.69 656.79 293.69 589.13 C262.01 589.13 230.33 589.13 197.69 589.13 C193.69 586.13 193.69 586.13 193.2 582.83 C193.18 581.44 193.18 580.04 193.21 578.64 C193.2 577.87 193.2 577.1 193.19 576.31 C193.18 573.72 193.2 571.14 193.22 568.55 C193.22 566.7 193.22 564.85 193.22 563 C193.21 557.97 193.23 552.93 193.25 547.9 C193.28 542.64 193.28 537.38 193.28 532.13 C193.28 523.3 193.31 514.47 193.34 505.64 C193.38 494.29 193.39 482.94 193.4 471.6 C193.41 461.86 193.43 452.12 193.45 442.38 C193.46 439.24 193.46 436.1 193.47 432.96 C193.47 428.04 193.49 423.12 193.51 418.2 C193.51 416.38 193.52 414.57 193.52 412.76 C193.52 410.3 193.53 407.83 193.55 405.37 C193.55 404.64 193.55 403.92 193.55 403.17 C193.58 398.25 193.58 398.25 194.69 397.13 C197.77 397.04 200.82 397.01 203.89 397.02 C205.34 397.02 205.34 397.02 206.82 397.02 C210.03 397.02 213.24 397.03 216.45 397.04 C218.67 397.04 220.88 397.04 223.1 397.04 C228.95 397.04 234.8 397.05 240.65 397.07 C247.67 397.08 254.68 397.08 261.69 397.09 C272.36 397.1 283.03 397.12 293.69 397.13 C293.36 365.45 293.03 333.77 292.69 301.13 C260.02 300.8 227.35 300.47 193.69 300.13 C193.36 234.46 193.03 168.79 192.69 101.13 C95.18 100.64 95.18 100.64 -4.31 100.13 C-4.31 103.76 -4.31 107.39 -4.31 111.13 C-4.64 111.13 -4.97 111.13 -5.31 111.13 C-6.1 104.34 -6.45 97.67 -6.44 90.83 C-6.44 89.86 -6.44 88.88 -6.44 87.88 C-6.45 84.69 -6.44 81.5 -6.44 78.32 C-6.44 76.09 -6.44 73.87 -6.44 71.64 C-6.44 67 -6.44 62.35 -6.44 57.71 C-6.43 51.74 -6.43 45.78 -6.44 39.81 C-6.44 35.23 -6.44 30.64 -6.44 26.06 C-6.44 23.86 -6.44 21.65 -6.44 19.45 C-6.45 16.39 -6.44 13.33 -6.44 10.27 C-6.44 9.35 -6.44 8.44 -6.44 7.49 C-6.42 0.02 -6.42 0.02 0 0 Z M296.69 397.13 C296.69 397.46 296.69 397.79 296.69 398.13 C328.04 398.13 359.39 398.13 391.69 398.13 C391.69 397.8 391.69 397.47 391.69 397.13 C360.34 397.13 328.99 397.13 296.69 397.13 Z M197.69 587.13 C197.69 587.46 197.69 587.79 197.69 588.13 C228.71 588.13 259.73 588.13 291.69 588.13 C291.69 587.8 291.69 587.47 291.69 587.13 C260.67 587.13 229.65 587.13 197.69 587.13 Z M395.69 687.13 C395.69 687.46 395.69 687.79 395.69 688.13 C426.71 688.13 457.73 688.13 489.69 688.13 C489.69 687.8 489.69 687.47 489.69 687.13 C458.67 687.13 427.65 687.13 395.69 687.13 Z " fill="#000002" transform="translate(305.30669593811035,491.8662565946579)"/>
<path d="M0 0 C104.63 -0.06 104.63 -0.06 211.38 -0.12 C244.47 -0.15 244.47 -0.15 278.24 -0.18 C305.08 -0.19 305.08 -0.19 317.63 -0.19 C326.43 -0.19 335.24 -0.2 344.04 -0.21 C354.19 -0.22 364.33 -0.23 374.47 -0.23 C379.67 -0.23 384.86 -0.23 390.06 -0.24 C394.75 -0.25 399.43 -0.25 404.12 -0.24 C405.83 -0.24 407.53 -0.24 409.23 -0.25 C411.54 -0.26 413.84 -0.25 416.15 -0.25 C418.07 -0.25 418.07 -0.25 420.04 -0.25 C423 0 423 0 425 2 C425.25 4.97 425.25 4.97 425.25 8.87 C425.25 9.59 425.25 10.3 425.25 11.04 C425.26 13.48 425.25 15.91 425.24 18.34 C425.24 20.08 425.24 21.83 425.25 23.58 C425.25 28.4 425.24 33.23 425.23 38.06 C425.22 43.33 425.23 48.61 425.23 53.89 C425.23 64.14 425.22 74.39 425.21 84.64 C425.19 96.49 425.19 108.35 425.19 120.2 C425.18 151.51 425.15 182.82 425.12 214.12 C425.08 284.04 425.04 353.96 425 426 C284.75 426 144.5 426 0 426 C0 285.42 0 144.84 0 0 Z M101 100 C101 100.33 101 100.66 101 101 C173.93 101 246.86 101 322 101 C322 100.67 322 100.34 322 100 C249.07 100 176.14 100 101 100 Z M99 102 C98.91 104.86 98.89 107.69 98.91 110.54 C98.91 111.45 98.92 112.35 98.92 113.29 C98.93 116.35 98.95 119.41 98.96 122.48 C98.97 124.66 98.98 126.85 98.99 129.03 C99.01 134.99 99.04 140.94 99.07 146.9 C99.1 153.11 99.12 159.33 99.15 165.55 C99.2 176.66 99.25 187.77 99.31 198.88 C99.36 208.96 99.4 219.05 99.44 229.13 C99.49 240.83 99.54 252.52 99.6 264.22 C99.63 270.42 99.65 276.61 99.68 282.81 C99.7 288.64 99.73 294.46 99.76 300.28 C99.77 302.43 99.78 304.57 99.79 306.72 C99.8 309.63 99.82 312.54 99.84 315.46 C99.84 316.32 99.84 317.18 99.84 318.07 C99.51 321.84 99.51 321.84 101 325 C103.87 325.1 106.72 325.13 109.59 325.12 C110.5 325.12 111.4 325.12 112.34 325.12 C115.42 325.12 118.5 325.12 121.58 325.11 C123.82 325.11 126.05 325.11 128.28 325.11 C134.28 325.11 140.29 325.11 146.29 325.1 C151.91 325.1 157.54 325.1 163.16 325.09 C179.63 325.09 196.1 325.08 212.56 325.06 C249.34 325.04 286.11 325.02 324 325 C324 251.41 324 177.82 324 102 C284.21 101.79 284.21 101.79 244.42 101.6 C239.07 101.57 233.71 101.54 228.35 101.52 C227.68 101.51 227.01 101.51 226.32 101.51 C215.46 101.46 204.61 101.4 193.75 101.34 C182.62 101.28 171.49 101.23 160.36 101.17 C154.1 101.15 147.85 101.11 141.59 101.08 C135.71 101.05 129.83 101.02 123.95 100.99 C121.78 100.98 119.62 100.97 117.45 100.96 C114.51 100.94 111.57 100.93 108.62 100.92 C107.76 100.91 106.89 100.9 105.99 100.9 C102.19 100.52 102.19 100.52 99 102 Z " fill="#000002" transform="translate(0,854)"/>
<path d="M0 0 C140.58 0 281.16 0 426 0 C426 140.25 426 280.5 426 425 C321.12 425.06 321.12 425.06 214.12 425.12 C192.01 425.14 169.89 425.16 147.1 425.18 C120.2 425.19 120.2 425.19 107.62 425.19 C98.79 425.19 89.97 425.2 81.14 425.21 C70.97 425.22 60.81 425.23 50.64 425.23 C45.43 425.23 40.23 425.23 35.02 425.24 C30.32 425.25 25.62 425.25 20.92 425.24 C19.21 425.24 17.51 425.24 15.8 425.25 C13.49 425.26 11.18 425.25 8.87 425.25 C7.58 425.25 6.29 425.25 4.97 425.25 C2 425 2 425 0 423 C-0.25 420.04 -0.25 420.04 -0.25 416.15 C-0.25 415.43 -0.25 414.71 -0.25 413.98 C-0.26 411.55 -0.25 409.13 -0.24 406.7 C-0.24 404.96 -0.24 403.22 -0.25 401.47 C-0.25 396.66 -0.24 391.84 -0.23 387.02 C-0.22 381.76 -0.23 376.5 -0.23 371.24 C-0.23 361.01 -0.22 350.78 -0.21 340.55 C-0.19 328.73 -0.19 316.91 -0.19 305.08 C-0.18 273.85 -0.15 242.61 -0.12 211.38 C-0.06 106.74 -0.06 106.74 0 0 Z M102 99 C102 99.33 102 99.66 102 100 C174.93 100 247.86 100 323 100 C323 99.67 323 99.34 323 99 C250.07 99 177.14 99 102 99 Z M100 101 C99.91 103.86 99.89 106.69 99.91 109.54 C99.91 110.45 99.92 111.35 99.92 112.29 C99.93 115.35 99.95 118.41 99.96 121.48 C99.97 123.66 99.98 125.85 99.99 128.03 C100.01 133.99 100.04 139.94 100.07 145.9 C100.1 152.11 100.12 158.33 100.15 164.55 C100.2 175.66 100.25 186.77 100.31 197.88 C100.36 207.96 100.4 218.05 100.44 228.13 C100.49 239.83 100.54 251.52 100.6 263.22 C100.63 269.42 100.65 275.61 100.68 281.81 C100.7 287.64 100.73 293.46 100.76 299.28 C100.77 301.43 100.78 303.57 100.79 305.72 C100.8 308.63 100.82 311.54 100.84 314.46 C100.84 315.32 100.84 316.18 100.84 317.07 C100.51 320.84 100.51 320.84 102 324 C104.87 324.1 107.72 324.13 110.59 324.12 C111.5 324.12 112.4 324.12 113.34 324.12 C116.42 324.12 119.5 324.12 122.58 324.11 C124.82 324.11 127.05 324.11 129.28 324.11 C135.28 324.11 141.29 324.11 147.29 324.1 C152.91 324.1 158.54 324.1 164.16 324.09 C180.63 324.09 197.1 324.08 213.56 324.06 C250.34 324.04 287.11 324.02 325 324 C325 250.41 325 176.82 325 101 C285.21 100.79 285.21 100.79 245.42 100.6 C240.07 100.57 234.71 100.54 229.35 100.52 C228.68 100.51 228.01 100.51 227.32 100.51 C216.46 100.46 205.61 100.4 194.75 100.34 C183.62 100.28 172.49 100.23 161.36 100.17 C155.1 100.15 148.85 100.11 142.59 100.08 C136.71 100.05 130.83 100.02 124.95 99.99 C122.78 99.98 120.62 99.97 118.45 99.96 C115.51 99.94 112.57 99.93 109.62 99.92 C108.76 99.91 107.89 99.9 106.99 99.9 C103.19 99.52 103.19 99.52 100 101 Z " fill="#000002" transform="translate(854,0)"/>
<path d="M0 0 C140.25 0 280.5 0 425 0 C425 139.92 425 279.84 425 424 C422.05 425.47 419.44 425.12 416.15 425.11 C415.07 425.11 415.07 425.11 413.98 425.11 C411.55 425.1 409.13 425.09 406.7 425.08 C404.96 425.08 403.22 425.08 401.47 425.07 C396.66 425.06 391.84 425.05 387.02 425.03 C381.76 425.01 376.5 425 371.24 424.99 C361.01 424.97 350.78 424.94 340.55 424.91 C328.73 424.87 316.91 424.85 305.08 424.82 C273.85 424.74 242.61 424.65 211.38 424.56 C141.62 424.38 71.87 424.19 0 424 C0 284.08 0 144.16 0 0 Z M101 99 C101 99.33 101 99.66 101 100 C173.93 100 246.86 100 322 100 C322 99.67 322 99.34 322 99 C249.07 99 176.14 99 101 99 Z M99 101 C98.91 103.86 98.89 106.69 98.91 109.54 C98.91 110.45 98.92 111.35 98.92 112.29 C98.93 115.35 98.95 118.41 98.96 121.48 C98.97 123.66 98.98 125.85 98.99 128.03 C99.01 133.99 99.04 139.94 99.07 145.9 C99.1 152.11 99.12 158.33 99.15 164.55 C99.2 175.66 99.25 186.77 99.31 197.88 C99.36 207.96 99.4 218.05 99.44 228.13 C99.49 239.83 99.54 251.52 99.6 263.22 C99.63 269.42 99.65 275.61 99.68 281.81 C99.7 287.64 99.73 293.46 99.76 299.28 C99.77 301.43 99.78 303.57 99.79 305.72 C99.8 308.63 99.82 311.54 99.84 314.46 C99.84 315.32 99.84 316.18 99.84 317.07 C99.51 320.84 99.51 320.84 101 324 C103.87 324.1 106.72 324.13 109.59 324.12 C110.5 324.12 111.4 324.12 112.34 324.12 C115.42 324.12 118.5 324.12 121.58 324.11 C123.82 324.11 126.05 324.11 128.28 324.11 C134.28 324.11 140.29 324.11 146.29 324.1 C151.91 324.1 157.54 324.1 163.16 324.09 C179.63 324.09 196.1 324.08 212.56 324.06 C249.34 324.04 286.11 324.02 324 324 C324 250.41 324 176.82 324 101 C284.21 100.79 284.21 100.79 244.42 100.6 C239.07 100.57 233.71 100.54 228.35 100.52 C227.68 100.51 227.01 100.51 226.32 100.51 C215.46 100.46 204.61 100.4 193.75 100.34 C182.62 100.28 171.49 100.23 160.36 100.17 C154.1 100.15 147.85 100.11 141.59 100.08 C135.71 100.05 129.83 100.02 123.95 99.99 C121.78 99.98 119.62 99.97 117.45 99.96 C114.51 99.94 111.57 99.93 108.62 99.92 C107.76 99.91 106.89 99.9 105.99 99.9 C102.19 99.52 102.19 99.52 99 101 Z " fill="#000002" transform="translate(0,0)"/>
<path d="M0 0 C33.33 0 66.66 0 101 0 C101 32.67 101 65.34 101 99 C97.6 100.7 93.73 100.11 89.99 100.08 C89.06 100.08 88.13 100.08 87.16 100.07 C85.13 100.07 83.1 100.06 81.07 100.04 C77.86 100.03 74.65 100.02 71.44 100.01 C62.31 99.98 53.18 99.95 44.06 99.9 C38.48 99.88 32.9 99.86 27.32 99.85 C25.19 99.84 23.06 99.83 20.93 99.82 C17.96 99.8 14.98 99.79 12.01 99.79 C11.12 99.78 10.23 99.77 9.32 99.76 C4.68 99.55 4.68 99.55 1 102 C0.82 104.52 0.76 106.93 0.8 109.45 C0.8 110.23 0.8 111.01 0.8 111.81 C0.82 114.43 0.84 117.05 0.86 119.67 C0.88 121.54 0.88 123.41 0.89 125.29 C0.92 130.38 0.96 135.47 1 140.57 C1.04 145.89 1.07 151.21 1.1 156.53 C1.16 166.61 1.23 176.69 1.3 186.77 C1.38 198.24 1.46 209.71 1.53 221.18 C1.67 244.79 1.83 268.39 2 292 C3.21 292 4.43 292 5.68 291.99 C17.08 291.97 28.49 291.96 39.89 291.95 C45.75 291.94 51.62 291.94 57.48 291.92 C63.14 291.91 68.79 291.91 74.44 291.91 C76.61 291.9 78.77 291.9 80.93 291.89 C83.95 291.89 86.96 291.89 89.98 291.89 C90.89 291.88 91.79 291.88 92.72 291.88 C98.89 291.89 98.89 291.89 100 293 C101.33 302.45 101.17 311.96 101.21 321.48 C101.21 323.35 101.22 325.21 101.24 327.08 C101.26 332.11 101.28 337.14 101.3 342.18 C101.33 347.45 101.35 352.72 101.38 357.99 C101.43 367.96 101.47 377.93 101.52 387.9 C101.57 399.25 101.62 410.61 101.68 421.96 C101.79 445.31 101.9 468.65 102 492 C103.21 492 104.42 491.99 105.67 491.99 C117.06 491.95 128.45 491.92 139.84 491.9 C145.69 491.89 151.55 491.87 157.41 491.85 C163.05 491.83 168.7 491.82 174.35 491.81 C176.51 491.81 178.67 491.8 180.82 491.79 C183.84 491.77 186.85 491.77 189.87 491.77 C190.77 491.77 191.67 491.76 192.6 491.75 C198.77 491.77 198.77 491.77 201 494 C201.21 496.62 201.29 499.14 201.28 501.76 C201.28 502.57 201.29 503.38 201.3 504.21 C201.31 506.94 201.32 509.67 201.32 512.4 C201.33 514.35 201.34 516.3 201.35 518.26 C201.38 523.57 201.39 528.88 201.4 534.18 C201.42 539.73 201.45 545.27 201.47 550.82 C201.52 561.32 201.56 571.83 201.59 582.33 C201.63 594.29 201.68 606.24 201.73 618.2 C201.83 642.8 201.92 667.4 202 692 C203.21 692 204.43 692 205.68 691.99 C217.08 691.97 228.49 691.96 239.89 691.95 C245.75 691.94 251.62 691.94 257.48 691.92 C263.14 691.91 268.79 691.91 274.44 691.91 C276.61 691.9 278.77 691.9 280.93 691.89 C283.95 691.89 286.96 691.89 289.98 691.89 C290.89 691.88 291.79 691.88 292.72 691.88 C298.89 691.89 298.89 691.89 300 693 C301.01 699.35 301.15 705.78 301.13 712.2 C301.13 713.48 301.13 713.48 301.13 714.8 C301.14 717.6 301.14 720.39 301.13 723.19 C301.13 725.15 301.13 727.1 301.14 729.06 C301.14 733.14 301.14 737.22 301.13 741.3 C301.12 746.54 301.13 751.78 301.13 757.01 C301.14 761.04 301.14 765.07 301.13 769.1 C301.13 771.04 301.13 772.97 301.14 774.9 C301.14 777.59 301.13 780.28 301.13 782.97 C301.13 784.17 301.13 784.17 301.14 785.4 C301.11 790.89 301.11 790.89 300 792 C296.89 792.1 293.81 792.13 290.71 792.11 C289.73 792.11 288.76 792.11 287.75 792.11 C284.51 792.11 281.27 792.11 278.03 792.1 C275.79 792.1 273.55 792.09 271.31 792.09 C265.4 792.09 259.49 792.08 253.58 792.07 C246.49 792.06 239.41 792.05 232.32 792.05 C221.55 792.04 210.77 792.02 200 792 C199.5 743 199.5 743 199 693 C166.33 692.67 133.66 692.34 100 692 C99.67 626.33 99.34 560.66 99 493 C1.49 492.5 1.49 492.5 -98 492 C-98 495.63 -98 499.26 -98 503 C-98.33 503 -98.66 503 -99 503 C-99.8 496.21 -100.14 489.53 -100.13 482.7 C-100.13 481.73 -100.13 480.75 -100.13 479.75 C-100.14 476.56 -100.14 473.37 -100.13 470.18 C-100.13 467.96 -100.13 465.73 -100.14 463.51 C-100.14 458.86 -100.14 454.22 -100.13 449.58 C-100.12 443.61 -100.13 437.64 -100.13 431.68 C-100.14 427.09 -100.14 422.51 -100.13 417.92 C-100.13 415.72 -100.13 413.52 -100.14 411.32 C-100.14 408.26 -100.13 405.2 -100.13 402.13 C-100.13 401.22 -100.13 400.3 -100.14 399.36 C-100.11 393.11 -100.11 393.11 -99 392 C-95.93 391.9 -92.87 391.87 -89.8 391.89 C-88.82 391.89 -87.84 391.89 -86.82 391.89 C-83.63 391.89 -80.44 391.89 -77.25 391.9 C-75.28 391.9 -73.32 391.9 -71.35 391.91 C-64.05 391.91 -56.74 391.92 -49.44 391.94 C-24.97 391.97 -24.97 391.97 0 392 C-0.33 359.33 -0.66 326.66 -1 293 C-33.67 292.67 -66.34 292.34 -100 292 C-100.04 243.89 -100.04 243.89 -100.05 223.8 C-100.05 209.9 -100.06 196 -100.08 182.11 C-100.09 171.99 -100.09 161.87 -100.09 151.75 C-100.1 146.39 -100.1 141.03 -100.11 135.66 C-100.11 130.62 -100.11 125.58 -100.11 120.54 C-100.11 118.69 -100.12 116.83 -100.12 114.98 C-100.12 112.45 -100.12 109.93 -100.12 107.41 C-100.12 106.67 -100.13 105.92 -100.13 105.15 C-100.11 100.11 -100.11 100.11 -99 99 C-95.93 98.9 -92.87 98.87 -89.8 98.89 C-88.82 98.89 -87.84 98.89 -86.82 98.89 C-83.63 98.89 -80.44 98.89 -77.25 98.9 C-75.28 98.9 -73.32 98.9 -71.35 98.91 C-64.05 98.91 -56.74 98.92 -49.44 98.94 C-24.97 98.97 -24.97 98.97 0 99 C0 66.33 0 33.66 0 0 Z " fill="#000002" transform="translate(599,0)"/>
<path d="M0 0 C45.31 -0.08 45.31 -0.08 64.24 -0.1 C77.33 -0.11 90.43 -0.12 103.52 -0.15 C113.05 -0.17 122.58 -0.18 132.12 -0.19 C137.17 -0.19 142.22 -0.2 147.27 -0.21 C152.02 -0.22 156.77 -0.23 161.52 -0.23 C163.26 -0.23 165.01 -0.23 166.76 -0.24 C169.13 -0.25 171.51 -0.25 173.89 -0.24 C174.59 -0.25 175.28 -0.25 176 -0.26 C180.77 -0.23 180.77 -0.23 183 2 C183.22 4.98 183.31 7.87 183.32 10.86 C183.33 11.79 183.34 12.72 183.35 13.68 C183.38 16.71 183.4 19.73 183.41 22.76 C183.43 24.62 183.45 26.49 183.47 28.35 C183.53 35.28 183.58 42.2 183.62 49.12 C183.75 64.59 183.87 80.06 184 96 C216.67 96.33 249.34 96.66 283 97 C283 163.33 283 229.66 283 298 C213.07 298.08 213.07 298.08 183.92 298.1 C177.25 298.1 170.58 298.11 163.91 298.11 C163.07 298.11 162.24 298.11 161.37 298.11 C147.86 298.12 134.35 298.14 120.83 298.15 C106.97 298.17 93.11 298.18 79.25 298.19 C70.69 298.19 62.13 298.2 53.57 298.22 C47.71 298.23 41.85 298.23 35.99 298.23 C32.6 298.23 29.21 298.23 25.83 298.24 C22.16 298.25 18.5 298.25 14.83 298.24 C13.21 298.25 13.21 298.25 11.56 298.26 C10.58 298.25 9.61 298.25 8.6 298.25 C7.76 298.25 6.91 298.25 6.04 298.25 C4 298 4 298 2 296 C1.78 292.99 1.69 290.07 1.68 287.05 C1.67 286.11 1.66 285.17 1.65 284.2 C1.62 281.14 1.6 278.08 1.59 275.02 C1.57 273.14 1.55 271.25 1.53 269.37 C1.47 262.37 1.42 255.37 1.38 248.38 C1.25 232.74 1.13 217.11 1 201 C-31.01 200.67 -63.02 200.34 -96 200 C-96 203.63 -96 207.26 -96 211 C-96.33 211 -96.66 211 -97 211 C-97.8 204.21 -98.14 197.53 -98.13 190.7 C-98.13 189.73 -98.13 188.75 -98.13 187.75 C-98.14 184.56 -98.14 181.37 -98.13 178.18 C-98.13 175.96 -98.13 173.73 -98.14 171.51 C-98.14 166.86 -98.14 162.22 -98.13 157.58 C-98.12 151.61 -98.13 145.64 -98.13 139.68 C-98.14 135.09 -98.14 130.51 -98.13 125.92 C-98.13 123.72 -98.13 121.52 -98.14 119.32 C-98.14 116.26 -98.13 113.2 -98.13 110.13 C-98.13 109.22 -98.13 108.3 -98.14 107.36 C-98.11 101.11 -98.11 101.11 -97 100 C-93.99 99.9 -91 99.87 -87.98 99.89 C-87.02 99.89 -86.06 99.89 -85.07 99.89 C-81.94 99.89 -78.81 99.89 -75.68 99.9 C-73.76 99.9 -71.83 99.9 -69.91 99.91 C-62.75 99.91 -55.59 99.92 -48.44 99.94 C-32.45 99.96 -16.47 99.98 0 100 C0 67 0 34 0 0 Z M3 100 C1.32 103.36 1.91 107.15 1.96 110.84 C1.97 111.76 1.98 112.67 1.99 113.61 C2.01 116.65 2.05 119.69 2.09 122.72 C2.11 124.82 2.13 126.93 2.15 129.03 C2.2 133.44 2.25 137.85 2.3 142.26 C2.36 147.92 2.42 153.59 2.47 159.25 C2.52 163.59 2.57 167.94 2.61 172.28 C2.64 174.37 2.66 176.46 2.68 178.55 C2.71 181.46 2.74 184.38 2.78 187.29 C2.79 188.16 2.79 189.03 2.8 189.93 C2.48 193.78 2.48 193.78 4 197 C6.29 197.1 8.58 197.12 10.88 197.12 C11.61 197.12 12.33 197.12 13.08 197.12 C15.54 197.12 18 197.12 20.45 197.11 C22.21 197.11 23.96 197.11 25.71 197.11 C30.49 197.11 35.27 197.11 40.04 197.1 C45.03 197.1 50.02 197.09 55 197.09 C64.45 197.09 73.9 197.08 83.35 197.07 C94.1 197.06 104.86 197.06 115.61 197.05 C137.74 197.04 159.87 197.02 182 197 C182.02 184.5 182.04 172 182.05 159.5 C182.06 153.7 182.06 147.89 182.08 142.09 C182.09 136.5 182.09 130.9 182.09 125.3 C182.1 123.16 182.1 121.02 182.11 118.88 C182.11 115.9 182.11 112.91 182.11 109.93 C182.12 109.03 182.12 108.14 182.12 107.22 C182.51 103.29 182.51 103.29 181 100 C178.71 99.9 176.42 99.88 174.12 99.88 C173.39 99.88 172.67 99.88 171.92 99.88 C169.46 99.88 167 99.88 164.55 99.89 C162.79 99.89 161.04 99.89 159.29 99.89 C154.51 99.89 149.73 99.89 144.96 99.9 C139.97 99.9 134.98 99.91 130 99.91 C120.55 99.91 111.1 99.92 101.65 99.93 C90.9 99.94 80.14 99.94 69.39 99.95 C47.26 99.96 25.13 99.98 3 100 Z " fill="#000002" transform="translate(997,492)"/>
<path d="M0 0 C0.91 0 1.82 0 2.76 0 C4.19 -0 4.19 -0 5.64 -0.01 C8.81 -0.02 11.98 -0.02 15.14 -0.02 C17.33 -0.02 19.53 -0.03 21.72 -0.03 C26.32 -0.04 30.91 -0.04 35.51 -0.04 C41.42 -0.04 47.33 -0.05 53.23 -0.07 C57.76 -0.08 62.29 -0.08 66.81 -0.08 C68.99 -0.08 71.17 -0.09 73.35 -0.1 C76.39 -0.11 79.43 -0.1 82.47 -0.1 C83.38 -0.1 84.29 -0.11 85.22 -0.11 C91.45 -0.08 91.45 -0.08 93.68 2.15 C93.9 5.25 93.99 8.26 94 11.37 C94.01 12.33 94.02 13.28 94.03 14.27 C94.06 17.44 94.08 20.61 94.09 23.78 C94.11 25.97 94.13 28.17 94.15 30.36 C94.2 36.15 94.24 41.93 94.28 47.71 C94.32 53.61 94.37 59.51 94.42 65.41 C94.52 76.99 94.6 88.57 94.68 100.15 C95.89 100.14 97.1 100.14 98.35 100.14 C109.76 100.12 121.16 100.1 132.57 100.09 C138.43 100.09 144.3 100.08 150.16 100.07 C155.81 100.06 161.47 100.05 167.12 100.05 C169.28 100.05 171.45 100.05 173.61 100.04 C176.63 100.03 179.64 100.03 182.66 100.03 C184.02 100.03 184.02 100.03 185.4 100.02 C191.56 100.03 191.56 100.03 192.68 101.15 C193.69 107.53 193.84 114 193.88 120.45 C193.89 121.32 193.9 122.19 193.91 123.09 C193.95 125.92 193.97 128.76 193.99 131.59 C194.02 133.57 194.04 135.55 194.06 137.54 C194.11 142.72 194.16 147.91 194.21 153.09 C194.26 158.39 194.32 163.7 194.37 169 C194.48 179.38 194.58 189.76 194.68 200.15 C195.87 200.14 197.05 200.14 198.28 200.14 C209.45 200.12 220.62 200.1 231.79 200.09 C237.53 200.09 243.27 200.08 249.01 200.07 C254.55 200.06 260.09 200.05 265.63 200.05 C267.74 200.05 269.86 200.05 271.98 200.04 C274.93 200.03 277.89 200.03 280.84 200.03 C281.73 200.03 282.61 200.03 283.53 200.02 C289.56 200.03 289.56 200.03 290.68 201.15 C290.77 204.22 290.8 207.27 290.79 210.35 C290.79 211.31 290.79 212.28 290.79 213.27 C290.79 216.48 290.78 219.69 290.78 222.9 C290.77 225.12 290.77 227.34 290.77 229.56 C290.77 235.41 290.76 241.26 290.75 247.11 C290.74 253.07 290.73 259.04 290.73 265 C290.72 276.72 290.7 288.43 290.68 300.15 C277.79 300.17 264.9 300.19 252.01 300.2 C246.02 300.2 240.04 300.21 234.05 300.22 C228.28 300.23 222.51 300.24 216.74 300.24 C214.53 300.24 212.33 300.25 210.12 300.25 C207.04 300.26 203.96 300.26 200.88 300.26 C199.96 300.26 199.04 300.27 198.09 300.27 C191.79 300.26 191.79 300.26 190.68 299.15 C190.58 296.1 190.55 293.08 190.57 290.04 C190.56 289.07 190.56 288.09 190.56 287.09 C190.57 283.93 190.57 280.77 190.58 277.61 C190.58 275.67 190.58 273.72 190.58 271.78 C190.59 264.55 190.6 257.31 190.62 250.08 C190.64 233.93 190.66 217.79 190.68 201.15 C158.34 200.82 126 200.49 92.68 200.15 C92.35 167.48 92.02 134.81 91.68 101.15 C59.67 100.82 27.66 100.49 -5.32 100.15 C-5.32 103.78 -5.32 107.41 -5.32 111.15 C-5.65 111.15 -5.98 111.15 -6.32 111.15 C-7.12 104.36 -7.47 97.68 -7.45 90.85 C-7.45 89.87 -7.45 88.9 -7.46 87.89 C-7.46 84.7 -7.46 81.52 -7.45 78.33 C-7.45 76.1 -7.46 73.88 -7.46 71.65 C-7.46 67.01 -7.46 62.37 -7.45 57.72 C-7.45 51.76 -7.45 45.79 -7.46 39.83 C-7.46 35.24 -7.46 30.66 -7.46 26.07 C-7.45 23.87 -7.46 21.67 -7.46 19.47 C-7.46 16.4 -7.46 13.34 -7.45 10.28 C-7.45 9.37 -7.45 8.45 -7.46 7.51 C-7.43 0.17 -7.34 0.04 0 0 Z " fill="#000002" transform="translate(106.3214111328125,491.8533630371094)"/>
<path d="M0 0 C33 0 66 0 100 0 C100 66 100 132 100 200 C67.33 200 34.66 200 1 200 C1 203.63 1 207.26 1 211 C0.67 211 0.34 211 0 211 C-1.28 201.18 -1.14 191.4 -1.13 181.52 C-1.13 179.55 -1.13 177.58 -1.13 175.61 C-1.14 170.28 -1.14 164.96 -1.13 159.63 C-1.13 154.06 -1.13 148.48 -1.14 142.91 C-1.14 133.55 -1.14 124.2 -1.13 114.85 C-1.12 104.03 -1.13 93.2 -1.13 82.38 C-1.14 73.08 -1.14 63.79 -1.13 54.49 C-1.13 48.94 -1.13 43.39 -1.14 37.84 C-1.14 32.63 -1.14 27.42 -1.13 22.21 C-1.13 20.29 -1.13 18.38 -1.13 16.46 C-1.14 13.86 -1.13 11.25 -1.13 8.65 C-1.13 7.49 -1.13 7.49 -1.13 6.32 C-1.11 1.11 -1.11 1.11 0 0 Z " fill="#000002" transform="translate(1180,887)"/>
<path d="M0 0 C32.34 0 64.68 0 98 0 C102.28 4.28 100.13 18.15 100.14 24.16 C100.13 25.9 100.13 27.64 100.13 29.38 C100.13 31.23 100.13 33.08 100.13 34.93 C100.14 39.94 100.14 44.94 100.13 49.94 C100.13 55.18 100.13 60.42 100.14 65.66 C100.14 74.45 100.14 83.23 100.13 92.02 C100.12 102.19 100.13 112.36 100.13 122.53 C100.14 131.27 100.14 140 100.13 148.73 C100.13 153.95 100.13 159.17 100.14 164.38 C100.14 169.28 100.14 174.17 100.13 179.07 C100.13 180.87 100.13 182.67 100.13 184.47 C100.14 186.92 100.13 189.36 100.13 191.81 C100.13 192.89 100.13 192.89 100.13 194 C100.11 198.89 100.11 198.89 99 200 C66.33 200 33.66 200 0 200 C0 134 0 68 0 0 Z " fill="#000002" transform="translate(0,592)"/>
<path d="M0 0 C0.92 0 1.84 0.01 2.79 0.01 C4.24 0.01 4.24 0.01 5.72 0.01 C8.93 0.01 12.14 0.02 15.35 0.03 C17.56 0.03 19.78 0.03 22 0.03 C27.85 0.03 33.7 0.04 39.55 0.06 C45.52 0.07 51.48 0.07 57.45 0.08 C69.16 0.09 80.88 0.1 92.59 0.12 C93.77 3.65 93.74 6.82 93.74 10.49 C93.75 11.24 93.75 12 93.76 12.78 C93.77 15.32 93.78 17.86 93.78 20.4 C93.79 22.22 93.8 24.04 93.81 25.85 C93.83 29.77 93.84 33.69 93.85 37.61 C93.87 43.8 93.9 50 93.93 56.19 C94 70.45 94.05 84.72 94.11 98.98 C94.16 112.05 94.21 125.12 94.27 138.19 C94.3 144.35 94.32 150.51 94.34 156.67 C94.36 160.5 94.37 164.33 94.39 168.16 C94.4 169.93 94.41 171.71 94.41 173.49 C94.42 175.92 94.43 178.34 94.44 180.76 C94.44 181.47 94.44 182.18 94.44 182.91 C94.46 185.93 94.63 188.24 95.59 191.12 C91.6 193.79 88.14 193.37 83.5 193.31 C82.57 193.3 81.64 193.3 80.68 193.29 C77.6 193.27 74.52 193.24 71.44 193.21 C69.3 193.19 67.16 193.17 65.03 193.15 C60.54 193.11 56.06 193.07 51.57 193.01 C45.82 192.95 40.07 192.9 34.32 192.87 C29.9 192.83 25.48 192.79 21.07 192.74 C18.94 192.72 16.82 192.7 14.7 192.69 C11.74 192.67 8.78 192.63 5.81 192.59 C4.93 192.59 4.05 192.59 3.15 192.58 C2.34 192.57 1.53 192.55 0.7 192.54 C-0 192.53 -0.7 192.52 -1.42 192.51 C-4.23 191.96 -5.46 191.25 -7.41 189.12 C-7.8 186.49 -7.93 184.27 -7.89 181.63 C-7.9 180.86 -7.9 180.09 -7.91 179.3 C-7.92 176.71 -7.9 174.13 -7.88 171.54 C-7.88 169.69 -7.88 167.84 -7.88 165.99 C-7.89 160.96 -7.87 155.92 -7.85 150.89 C-7.82 145.63 -7.82 140.37 -7.82 135.12 C-7.82 126.29 -7.8 117.46 -7.76 108.63 C-7.72 97.28 -7.71 85.94 -7.7 74.59 C-7.69 64.85 -7.67 55.11 -7.65 45.37 C-7.65 42.23 -7.64 39.09 -7.64 35.96 C-7.63 31.03 -7.61 26.11 -7.59 21.19 C-7.59 19.37 -7.58 17.56 -7.58 15.75 C-7.58 13.29 -7.57 10.82 -7.55 8.36 C-7.55 7.64 -7.55 6.91 -7.55 6.16 C-7.51 -0.47 -6.49 0.01 0 0 Z M-3.41 190.12 C-3.41 190.45 -3.41 190.78 -3.41 191.12 C27.61 191.12 58.63 191.12 90.59 191.12 C90.59 190.79 90.59 190.46 90.59 190.12 C59.57 190.12 28.55 190.12 -3.41 190.12 Z " fill="#010103" transform="translate(506.40708923339844,888.8755798339844)"/>
<path d="M0 0 C0.91 0 1.82 0 2.76 0 C4.19 -0 4.19 -0 5.64 -0.01 C8.81 -0.02 11.98 -0.02 15.14 -0.02 C17.33 -0.02 19.53 -0.03 21.72 -0.03 C26.32 -0.04 30.91 -0.04 35.51 -0.04 C41.42 -0.04 47.33 -0.05 53.23 -0.07 C57.76 -0.08 62.29 -0.08 66.81 -0.08 C68.99 -0.08 71.17 -0.09 73.35 -0.1 C76.39 -0.11 79.43 -0.1 82.47 -0.1 C83.38 -0.1 84.29 -0.11 85.22 -0.11 C91.45 -0.08 91.45 -0.08 93.68 2.15 C93.87 5.22 93.94 8.19 93.92 11.26 C93.92 12.21 93.93 13.15 93.93 14.13 C93.93 17.26 93.92 20.39 93.91 23.53 C93.91 25.7 93.91 27.86 93.91 30.03 C93.91 34.58 93.9 39.13 93.88 43.69 C93.87 49.53 93.86 55.38 93.86 61.23 C93.86 65.71 93.86 70.19 93.85 74.67 C93.85 76.82 93.85 78.98 93.85 81.14 C93.84 84.15 93.83 87.15 93.82 90.16 C93.82 91.06 93.82 91.96 93.83 92.89 C93.79 99.03 93.79 99.03 92.68 100.15 C89.63 100.24 86.61 100.27 83.57 100.26 C82.61 100.26 81.66 100.26 80.67 100.26 C77.5 100.26 74.32 100.25 71.14 100.24 C68.95 100.24 66.75 100.24 64.56 100.24 C58.76 100.24 52.97 100.23 47.18 100.22 C41.28 100.21 35.37 100.2 29.47 100.2 C17.87 100.18 6.27 100.17 -5.32 100.15 C-5.32 103.78 -5.32 107.41 -5.32 111.15 C-5.65 111.15 -5.98 111.15 -6.32 111.15 C-7.12 104.36 -7.47 97.68 -7.45 90.85 C-7.45 89.87 -7.45 88.9 -7.46 87.89 C-7.46 84.7 -7.46 81.52 -7.45 78.33 C-7.45 76.1 -7.46 73.88 -7.46 71.65 C-7.46 67.01 -7.46 62.37 -7.45 57.72 C-7.45 51.76 -7.45 45.79 -7.46 39.83 C-7.46 35.24 -7.46 30.66 -7.46 26.07 C-7.45 23.87 -7.46 21.67 -7.46 19.47 C-7.46 16.4 -7.46 13.34 -7.45 10.28 C-7.45 9.37 -7.45 8.45 -7.46 7.51 C-7.43 0.17 -7.34 0.04 0 0 Z " fill="#000002" transform="translate(1006.3214111328125,886.8533630371094)"/>
<path d="M0 0 C0.91 0 1.82 0 2.76 0 C4.19 -0 4.19 -0 5.64 -0.01 C8.81 -0.02 11.98 -0.02 15.14 -0.02 C17.33 -0.02 19.53 -0.03 21.72 -0.03 C26.32 -0.04 30.91 -0.04 35.51 -0.04 C41.42 -0.04 47.33 -0.05 53.23 -0.07 C57.76 -0.08 62.29 -0.08 66.81 -0.08 C68.99 -0.08 71.17 -0.09 73.35 -0.1 C76.39 -0.11 79.43 -0.1 82.47 -0.1 C83.38 -0.1 84.29 -0.11 85.22 -0.11 C91.45 -0.08 91.45 -0.08 93.68 2.15 C93.87 5.22 93.94 8.19 93.92 11.26 C93.92 12.21 93.93 13.15 93.93 14.13 C93.93 17.26 93.92 20.39 93.91 23.53 C93.91 25.7 93.91 27.86 93.91 30.03 C93.91 34.58 93.9 39.13 93.88 43.69 C93.87 49.53 93.86 55.38 93.86 61.23 C93.86 65.71 93.86 70.19 93.85 74.67 C93.85 76.82 93.85 78.98 93.85 81.14 C93.84 84.15 93.83 87.15 93.82 90.16 C93.82 91.06 93.82 91.96 93.83 92.89 C93.79 99.03 93.79 99.03 92.68 100.15 C89.63 100.24 86.61 100.27 83.57 100.26 C82.61 100.26 81.66 100.26 80.67 100.26 C77.5 100.26 74.32 100.25 71.14 100.24 C68.95 100.24 66.75 100.24 64.56 100.24 C58.76 100.24 52.97 100.23 47.18 100.22 C41.28 100.21 35.37 100.2 29.47 100.2 C17.87 100.18 6.27 100.17 -5.32 100.15 C-5.32 103.78 -5.32 107.41 -5.32 111.15 C-5.65 111.15 -5.98 111.15 -6.32 111.15 C-7.12 104.36 -7.47 97.68 -7.45 90.85 C-7.45 89.87 -7.45 88.9 -7.46 87.89 C-7.46 84.7 -7.46 81.52 -7.45 78.33 C-7.45 76.1 -7.46 73.88 -7.46 71.65 C-7.46 67.01 -7.46 62.37 -7.45 57.72 C-7.45 51.76 -7.45 45.79 -7.46 39.83 C-7.46 35.24 -7.46 30.66 -7.46 26.07 C-7.45 23.87 -7.46 21.67 -7.46 19.47 C-7.46 16.4 -7.46 13.34 -7.45 10.28 C-7.45 9.37 -7.45 8.45 -7.46 7.51 C-7.43 0.17 -7.34 0.04 0 0 Z " fill="#000002" transform="translate(706.3214111328125,191.85336303710938)"/>
<path d="M0 0 C12.89 -0.02 25.78 -0.04 38.67 -0.05 C44.66 -0.06 50.64 -0.06 56.63 -0.08 C62.4 -0.09 68.17 -0.09 73.94 -0.09 C76.15 -0.1 78.35 -0.1 80.56 -0.11 C83.64 -0.11 86.72 -0.11 89.8 -0.11 C90.72 -0.12 91.64 -0.12 92.59 -0.12 C98.89 -0.11 98.89 -0.11 100 1 C100.1 4.07 100.13 7.13 100.11 10.2 C100.11 11.17 100.11 12.13 100.11 13.13 C100.11 16.34 100.11 19.55 100.1 22.75 C100.1 24.97 100.09 27.19 100.09 29.41 C100.09 35.26 100.08 41.11 100.07 46.96 C100.06 52.93 100.05 58.89 100.05 64.86 C100.04 76.57 100.02 88.29 100 100 C87.11 100.02 74.22 100.04 61.33 100.05 C55.34 100.06 49.36 100.06 43.37 100.08 C37.6 100.09 31.83 100.09 26.06 100.09 C23.85 100.1 21.65 100.1 19.44 100.11 C16.36 100.11 13.28 100.11 10.2 100.11 C9.28 100.12 8.36 100.12 7.41 100.12 C1.11 100.11 1.11 100.11 0 99 C-0.1 95.93 -0.13 92.87 -0.11 89.8 C-0.11 88.83 -0.11 87.87 -0.11 86.87 C-0.11 83.66 -0.11 80.45 -0.1 77.25 C-0.1 75.03 -0.09 72.81 -0.09 70.59 C-0.09 64.74 -0.08 58.89 -0.07 53.04 C-0.06 47.07 -0.05 41.11 -0.05 35.14 C-0.04 23.43 -0.02 11.71 0 0 Z " fill="#000002" transform="translate(162,1017)"/>
<path d="M0 0 C12.89 -0.02 25.78 -0.04 38.67 -0.05 C44.66 -0.06 50.64 -0.06 56.63 -0.08 C62.4 -0.09 68.17 -0.09 73.94 -0.09 C76.15 -0.1 78.35 -0.1 80.56 -0.11 C83.64 -0.11 86.72 -0.11 89.8 -0.11 C90.72 -0.12 91.64 -0.12 92.59 -0.12 C98.89 -0.11 98.89 -0.11 100 1 C100.1 4.07 100.13 7.13 100.11 10.2 C100.11 11.17 100.11 12.13 100.11 13.13 C100.11 16.34 100.11 19.55 100.1 22.75 C100.1 24.97 100.09 27.19 100.09 29.41 C100.09 35.26 100.08 41.11 100.07 46.96 C100.06 52.93 100.05 58.89 100.05 64.86 C100.04 76.57 100.02 88.29 100 100 C87.11 100.02 74.22 100.04 61.33 100.05 C55.34 100.06 49.36 100.06 43.37 100.08 C37.6 100.09 31.83 100.09 26.06 100.09 C23.85 100.1 21.65 100.1 19.44 100.11 C16.36 100.11 13.28 100.11 10.2 100.11 C9.28 100.12 8.36 100.12 7.41 100.12 C1.11 100.11 1.11 100.11 0 99 C-0.1 95.93 -0.13 92.87 -0.11 89.8 C-0.11 88.83 -0.11 87.87 -0.11 86.87 C-0.11 83.66 -0.11 80.45 -0.1 77.25 C-0.1 75.03 -0.09 72.81 -0.09 70.59 C-0.09 64.74 -0.08 58.89 -0.07 53.04 C-0.06 47.07 -0.05 41.11 -0.05 35.14 C-0.04 23.43 -0.02 11.71 0 0 Z " fill="#000002" transform="translate(1017,162)"/>
<path d="M0 0 C12.89 -0.02 25.78 -0.04 38.67 -0.05 C44.66 -0.06 50.64 -0.06 56.63 -0.08 C62.4 -0.09 68.17 -0.09 73.94 -0.09 C76.15 -0.1 78.35 -0.1 80.56 -0.11 C83.64 -0.11 86.72 -0.11 89.8 -0.11 C90.72 -0.12 91.64 -0.12 92.59 -0.12 C98.89 -0.11 98.89 -0.11 100 1 C100.1 4.07 100.13 7.13 100.11 10.2 C100.11 11.17 100.11 12.13 100.11 13.13 C100.11 16.34 100.11 19.55 100.1 22.75 C100.1 24.97 100.09 27.19 100.09 29.41 C100.09 35.26 100.08 41.11 100.07 46.96 C100.06 52.93 100.05 58.89 100.05 64.86 C100.04 76.57 100.02 88.29 100 100 C87.11 100.02 74.22 100.04 61.33 100.05 C55.34 100.06 49.36 100.06 43.37 100.08 C37.6 100.09 31.83 100.09 26.06 100.09 C23.85 100.1 21.65 100.1 19.44 100.11 C16.36 100.11 13.28 100.11 10.2 100.11 C9.28 100.12 8.36 100.12 7.41 100.12 C1.11 100.11 1.11 100.11 0 99 C-0.1 95.93 -0.13 92.87 -0.11 89.8 C-0.11 88.83 -0.11 87.87 -0.11 86.87 C-0.11 83.66 -0.11 80.45 -0.1 77.25 C-0.1 75.03 -0.09 72.81 -0.09 70.59 C-0.09 64.74 -0.08 58.89 -0.07 53.04 C-0.06 47.07 -0.05 41.11 -0.05 35.14 C-0.04 23.43 -0.02 11.71 0 0 Z " fill="#000002" transform="translate(162,162)"/>
<path d="M0 0 C139.59 0 279.18 0 423 0 C423 0.33 423 0.66 423 1 C283.41 1 143.82 1 0 1 C0 0.67 0 0.34 0 0 Z " fill="#FBFDFD" transform="translate(0,425)"/>
<path d="M0 0 C137.94 0 275.88 0 418 0 C418 0.33 418 0.66 418 1 C280.06 1 142.12 1 0 1 C0 0.67 0 0.34 0 0 Z " fill="#FBFDFD" transform="translate(858,425)"/>
<path d="M0 0 C90.09 0 180.18 0 273 0 C273 0.33 273 0.66 273 1 C182.91 1 92.82 1 0 1 C0 0.67 0 0.34 0 0 Z " fill="#FBFDFD" transform="translate(1003,790)"/>
<path d="M0 0 C31.68 0 63.36 0 96 0 C96 0.33 96 0.66 96 1 C64.32 1 32.64 1 0 1 C0 0.67 0 0.34 0 0 Z " fill="#FBFDFD" transform="translate(602,100)"/>
<path d="M0 0 C0.33 0 0.66 0 1 0 C1 3.3 1 6.6 1 10 C0.67 10 0.34 10 0 10 C0 6.7 0 3.4 0 0 Z " fill="#FBFDFD" transform="translate(1000,594)"/>
<path d="M0 0 C0.33 0 0.66 0 1 0 C1 2.64 1 5.28 1 8 C0.67 8 0.34 8 0 8 C0 5.36 0 2.72 0 0 Z " fill="#FBFDFD" transform="translate(1100,1189)"/>
<path d="M0 0 C0.33 0 0.66 0 1 0 C1 2.64 1 5.28 1 8 C0.67 8 0.34 8 0 8 C0 5.36 0 2.72 0 0 Z " fill="#FBFDFD" transform="translate(700,1181)"/>
<path d="M0 0 C0.33 0 0.66 0 1 0 C1 2.64 1 5.28 1 8 C0.67 8 0.34 8 0 8 C0 5.36 0 2.72 0 0 Z " fill="#FBFDFD" transform="translate(600,892)"/>
<path d="M0 0 C0.33 0 0.66 0 1 0 C1 2.64 1 5.28 1 8 C0.67 8 0.34 8 0 8 C0 5.36 0 2.72 0 0 Z " fill="#FBFDFD" transform="translate(600,102)"/>
<path d="M0 0 C0.33 0 0.66 0 1 0 C1 2.31 1 4.62 1 7 C0.67 7 0.34 7 0 7 C0 4.69 0 2.38 0 0 Z " fill="#FBFDFD" transform="translate(100,956)"/>
<path d="M0 0 C0.33 0 0.66 0 1 0 C1 2.31 1 4.62 1 7 C0.67 7 0.34 7 0 7 C0 4.69 0 2.38 0 0 Z " fill="#FBFDFD" transform="translate(955,101)"/>
<path d="M0 0 C0.33 0 0.66 0 1 0 C1 2.31 1 4.62 1 7 C0.67 7 0.34 7 0 7 C0 4.69 0 2.38 0 0 Z " fill="#FBFDFD" transform="translate(100,101)"/>
<path d="" fill="#ECEBE9" transform="translate(0,0)"/>
<path d="" fill="#ECEBE9" transform="translate(0,0)"/>
<path d="" fill="#ECEBE9" transform="translate(0,0)"/>
<path d="" fill="#ECEBE9" transform="translate(0,0)"/>
<path d="" fill="#ECEBE9" transform="translate(0,0)"/>
<path d="" fill="#ECEBE9" transform="translate(0,0)"/>
<path d="" fill="#ECEBE9" transform="translate(0,0)"/>
<path d="" fill="#ECEBE9" transform="translate(0,0)"/>
<path d="" fill="#ECEBE9" transform="translate(0,0)"/>
<path d="" fill="#ECEBE9" transform="translate(0,0)"/>
<path d="" fill="#ECEBE9" transform="translate(0,0)"/>
<path d="" fill="#ECEBE9" transform="translate(0,0)"/>
<path d="" fill="#ECEBE9" transform="translate(0,0)"/>
<path d="" fill="#ECEBE9" transform="translate(0,0)"/>
<path d="" fill="#ECEBE9" transform="translate(0,0)"/>
<path d="" fill="#ECEBE9" transform="translate(0,0)"/>
<path d="" fill="#ECEBE9" transform="translate(0,0)"/>
<path d="" fill="#ECEBE9" transform="translate(0,0)"/>
<path d="" fill="#ECEBE9" transform="translate(0,0)"/>
<path d="" fill="#ECEBE9" transform="translate(0,0)"/>
<path d="" fill="#ECEBE9" transform="translate(0,0)"/>
<path d="" fill="#ECEBE9" transform="translate(0,0)"/>
<path d="" fill="#ECEBE9" transform="translate(0,0)"/>
<path d="" fill="#ECEBE9" transform="translate(0,0)"/>
<path d="" fill="#ECEBE9" transform="translate(0,0)"/>
<path d="" fill="#ECEBE9" transform="translate(0,0)"/>
<path d="" fill="#ECEBE9" transform="translate(0,0)"/>
<path d="" fill="#ECEBE9" transform="translate(0,0)"/>
</svg>
