<svg width="99" height="71" viewBox="0 0 99 71" fill="none" xmlns="http://www.w3.org/2000/svg">
<path d="M5.62411 13.9574L4.95258 12.6394V12.6394L5.62411 13.9574ZM3.03843 16.5431L1.72049 15.8715H1.72049L3.03843 16.5431ZM2.46977 27.6916L3.79651 27.0376L3.7965 27.0376L2.46977 27.6916ZM2.80614 28.028L2.15214 29.3547L2.15215 29.3547L2.80614 28.028ZM2.80614 42.972L3.46013 44.2988L3.46014 44.2988L2.80614 42.972ZM2.46977 43.3084L3.7965 43.9624L3.79651 43.9624L2.46977 43.3084ZM3.03843 54.4569L4.35638 53.7854H4.35638L3.03843 54.4569ZM5.62411 57.0426L4.95258 58.3606H4.95258L5.62411 57.0426ZM85.4156 57.0426L84.7441 55.7247H84.744L85.4156 57.0426ZM88.0013 54.4569L86.6833 53.7854V53.7854L88.0013 54.4569ZM88.5751 43.0715L89.9122 42.439L89.9122 42.439L88.5751 43.0715ZM88.2113 42.7139L87.6018 44.0616L88.2113 42.7139ZM87.4753 42.6554L87.5006 44.1344L87.4753 42.6554ZM80.8831 42.7682L80.9084 44.2472L80.8831 42.7682ZM88.2336 28.028L87.5796 26.7012L87.5796 26.7012L88.2336 28.028ZM88.5699 27.6916L87.2432 27.0376L87.2432 27.0376L88.5699 27.6916ZM88.0013 16.5431L86.6833 17.2146V17.2146L88.0013 16.5431ZM85.4156 13.9574L84.744 15.2753L84.7441 15.2753L85.4156 13.9574ZM11.8602 14.7917H49.4321V11.8333H11.8602V14.7917ZM6.29564 15.2753C6.68518 15.0768 7.19947 14.9405 8.09462 14.8674C9.00703 14.7928 10.179 14.7917 11.8602 14.7917V11.8333C10.2278 11.8333 8.91454 11.8322 7.85371 11.9189C6.77563 12.0069 5.82868 12.193 4.95258 12.6394L6.29564 15.2753ZM4.35638 17.2146C4.78182 16.3796 5.46067 15.7008 6.29564 15.2753L4.95258 12.6394C3.56097 13.3485 2.42955 14.4799 1.72049 15.8715L4.35638 17.2146ZM3.87272 22.7792C3.87272 21.0979 3.87387 19.926 3.94842 19.0136C4.02155 18.1184 4.1579 17.6041 4.35638 17.2146L1.72049 15.8715C1.27409 16.7476 1.08799 17.6946 0.99991 18.7727C0.913238 19.8335 0.914388 21.1468 0.914388 22.7792H3.87272ZM3.87272 26.9333V22.7792H0.914388V26.9333H3.87272ZM3.7965 27.0376C3.83538 27.1165 3.85655 27.1861 3.86769 27.2349C3.87781 27.2792 3.87872 27.3023 3.8776 27.2883C3.87644 27.2736 3.87472 27.2415 3.87374 27.1772C3.87276 27.113 3.87272 27.0372 3.87272 26.9333H0.914388C0.914388 27.1108 0.913301 27.3304 0.92856 27.5225C0.945133 27.7311 0.987599 28.0302 1.14304 28.3456L3.7965 27.0376ZM3.46014 26.7012C3.60624 26.7732 3.72448 26.8915 3.79651 27.0376L1.14304 28.3456C1.3591 28.7839 1.71383 29.1386 2.15214 29.3547L3.46014 26.7012ZM3.5644 26.625C3.46051 26.625 3.38476 26.625 3.32051 26.624C3.25623 26.623 3.22411 26.6213 3.20947 26.6201C3.19539 26.619 3.21855 26.6199 3.26282 26.63C3.31157 26.6412 3.38126 26.6623 3.46013 26.7012L2.15215 29.3547C2.46748 29.5101 2.76658 29.5526 2.97521 29.5692C3.16731 29.5844 3.38689 29.5833 3.5644 29.5833V26.625ZM10.2188 26.625H3.5644V29.5833H10.2188V26.625ZM19.0938 35.5C19.0938 30.5985 15.1203 26.625 10.2188 26.625V29.5833C13.4865 29.5833 16.1354 32.2323 16.1354 35.5H19.0938ZM10.2188 44.375C15.1203 44.375 19.0938 40.4015 19.0938 35.5H16.1354C16.1354 38.7677 13.4864 41.4167 10.2188 41.4167V44.375ZM3.5644 44.375H10.2188V41.4167H3.5644V44.375ZM3.46014 44.2988C3.38127 44.3377 3.31158 44.3588 3.26283 44.37C3.21855 44.3801 3.19539 44.381 3.20947 44.3799C3.22411 44.3787 3.25623 44.377 3.32051 44.376C3.38476 44.375 3.46051 44.375 3.5644 44.375V41.4167C3.38689 41.4167 3.1673 41.4156 2.97521 41.4308C2.76657 41.4474 2.46747 41.4899 2.15213 41.6453L3.46014 44.2988ZM3.79651 43.9624C3.72449 44.1085 3.60624 44.2268 3.46013 44.2988L2.15215 41.6453C1.71382 41.8614 1.3591 42.2161 1.14304 42.6544L3.79651 43.9624ZM3.87272 44.0667C3.87272 43.9628 3.87276 43.887 3.87374 43.8228C3.87472 43.7585 3.87644 43.7264 3.8776 43.7117C3.87872 43.6977 3.87781 43.7208 3.86769 43.7651C3.85655 43.8139 3.83538 43.8835 3.7965 43.9624L1.14304 42.6544C0.987599 42.9698 0.945133 43.2689 0.92856 43.4775C0.913301 43.6696 0.914388 43.8892 0.914388 44.0667H3.87272ZM3.87272 48.2208V44.0667H0.914388V48.2208H3.87272ZM4.35638 53.7854C4.1579 53.3959 4.02155 52.8816 3.94842 51.9864C3.87387 51.074 3.87272 49.9021 3.87272 48.2208H0.914388C0.914388 49.8532 0.913238 51.1665 0.99991 52.2273C1.08799 53.3054 1.27409 54.2524 1.72049 55.1285L4.35638 53.7854ZM6.29564 55.7247C5.46067 55.2992 4.78182 54.6204 4.35638 53.7854L1.72049 55.1285C2.42955 56.5201 3.56097 57.6515 4.95258 58.3606L6.29564 55.7247ZM11.8602 56.2083C10.179 56.2083 9.00702 56.2072 8.09461 56.1326C7.19947 56.0595 6.68519 55.9232 6.29564 55.7247L4.95258 58.3606C5.82868 58.807 6.77562 58.9931 7.85371 59.0811C8.91453 59.1678 10.2278 59.1667 11.8602 59.1667V56.2083ZM49.4321 56.2083H11.8602V59.1667H49.4321V56.2083ZM51.6509 56.9479V56.2087H48.6925V56.9479H51.6509ZM51.6509 56.2087C51.6509 55.3918 52.3131 54.7295 53.13 54.7295V51.7712C50.6792 51.7712 48.6925 53.758 48.6925 56.2087H51.6509ZM53.13 54.7295C53.9469 54.7295 54.6092 55.3918 54.6092 56.2087H57.5675C57.5675 53.758 55.5808 51.7712 53.13 51.7712V54.7295ZM54.6092 56.2087V56.9479H57.5675V56.2087H54.6092ZM79.1795 56.2083H56.8279V59.1667H79.1795V56.2083ZM84.744 55.7247C84.3545 55.9232 83.8402 56.0595 82.9451 56.1326C82.0327 56.2072 80.8607 56.2083 79.1795 56.2083V59.1667C80.8119 59.1667 82.1252 59.1678 83.186 59.0811C84.2641 58.9931 85.211 58.807 86.0871 58.3606L84.744 55.7247ZM86.6833 53.7854C86.2579 54.6204 85.579 55.2992 84.7441 55.7247L86.0871 58.3606C87.4787 57.6515 88.6101 56.5201 89.3192 55.1285L86.6833 53.7854ZM87.167 48.2208C87.167 49.9021 87.1658 51.074 87.0913 51.9864C87.0181 52.8816 86.8818 53.3959 86.6833 53.7854L89.3192 55.1285C89.7656 54.2524 89.9517 53.3054 90.0398 52.2273C90.1265 51.1665 90.1253 49.8532 90.1253 48.2208H87.167ZM87.167 43.8064V48.2208H90.1253V43.8064H87.167ZM87.238 43.704C87.2014 43.6266 87.1817 43.5588 87.1714 43.5121C87.1621 43.4697 87.1613 43.4477 87.1624 43.4617C87.1635 43.4763 87.1651 43.5076 87.166 43.57C87.1669 43.6323 87.167 43.7058 87.167 43.8064H90.1253C90.1253 43.6343 90.1263 43.4221 90.1121 43.2364C90.0968 43.0356 90.0575 42.7462 89.9122 42.439L87.238 43.704ZM87.6018 44.0616C87.4419 43.9893 87.313 43.8626 87.238 43.704L89.9122 42.439C89.6872 41.9633 89.3004 41.583 88.8208 41.3661L87.6018 44.0616ZM87.5006 44.1344C87.6012 44.1327 87.6747 44.1315 87.737 44.1313C87.7994 44.1312 87.8308 44.1322 87.8453 44.1331C87.8593 44.1339 87.8374 44.1335 87.7948 44.1249C87.7479 44.1154 87.6798 44.0969 87.6018 44.0616L88.8208 41.3661C88.5112 41.2261 88.2212 41.1918 88.0201 41.1799C87.8343 41.1689 87.6221 41.1736 87.45 41.1765L87.5006 44.1344ZM80.9084 44.2472L87.5006 44.1344L87.45 41.1765L80.8578 41.2893L80.9084 44.2472ZM71.9459 35.4367C71.9459 40.3623 75.9836 44.3314 80.9084 44.2472L80.8578 41.2893C77.5864 41.3453 74.9043 38.7087 74.9043 35.4367H71.9459ZM80.7577 26.625C75.8911 26.625 71.9459 30.5701 71.9459 35.4367H74.9043C74.9043 32.204 77.5249 29.5833 80.7577 29.5833V26.625ZM87.4753 26.625H80.7577V29.5833H87.4753V26.625ZM87.5796 26.7012C87.6584 26.6623 87.7281 26.6412 87.7769 26.63C87.8211 26.6199 87.8443 26.619 87.8302 26.6201C87.8156 26.6213 87.7835 26.623 87.7192 26.624C87.6549 26.625 87.5792 26.625 87.4753 26.625V29.5833C87.6528 29.5833 87.8724 29.5844 88.0645 29.5692C88.2731 29.5526 88.5722 29.5101 88.8875 29.3547L87.5796 26.7012ZM87.2432 27.0376C87.3152 26.8915 87.4335 26.7732 87.5796 26.7012L88.8875 29.3547C89.3259 29.1386 89.6806 28.7839 89.8967 28.3456L87.2432 27.0376ZM87.167 26.9333C87.167 27.0372 87.1669 27.113 87.166 27.1772C87.165 27.2415 87.1633 27.2736 87.1621 27.2882C87.161 27.3023 87.1619 27.2792 87.172 27.2349C87.1831 27.1861 87.2043 27.1164 87.2432 27.0376L89.8967 28.3456C90.0521 28.0303 90.0946 27.7312 90.1111 27.5225C90.1264 27.3304 90.1253 27.1108 90.1253 26.9333H87.167ZM87.167 22.7792V26.9333H90.1253V22.7792H87.167ZM86.6833 17.2146C86.8818 17.6041 87.0181 18.1184 87.0913 19.0136C87.1658 19.926 87.167 21.0979 87.167 22.7792H90.1253C90.1253 21.1468 90.1265 19.8335 90.0398 18.7727C89.9517 17.6946 89.7656 16.7476 89.3192 15.8715L86.6833 17.2146ZM84.7441 15.2753C85.579 15.7008 86.2579 16.3796 86.6833 17.2146L89.3192 15.8715C88.6101 14.4799 87.4787 13.3485 86.0871 12.6394L84.7441 15.2753ZM79.1795 14.7917C80.8607 14.7917 82.0327 14.7928 82.9451 14.8674C83.8402 14.9405 84.3545 15.0768 84.744 15.2753L86.0871 12.6394C85.211 12.193 84.2641 12.0069 83.186 11.9189C82.1252 11.8322 80.8119 11.8333 79.1795 11.8333V14.7917ZM56.8279 14.7917H79.1795V11.8333H56.8279V14.7917ZM54.6092 14.0521V14.792H57.5675V14.0521H54.6092ZM54.6092 14.792C54.6092 15.609 53.9469 16.2712 53.13 16.2712V19.2295C55.5808 19.2295 57.5675 17.2428 57.5675 14.792H54.6092ZM53.13 16.2712C52.3131 16.2712 51.6509 15.609 51.6509 14.792H48.6925C48.6925 17.2428 50.6793 19.2295 53.13 19.2295V16.2712ZM51.6509 14.792V14.0521H48.6925V14.792H51.6509ZM53.13 25.1462C53.9469 25.1462 54.6092 25.8085 54.6092 26.6254H57.5675C57.5675 24.1746 55.5808 22.1879 53.13 22.1879V25.1462ZM51.6509 26.6254C51.6509 25.8085 52.3131 25.1462 53.13 25.1462V22.1879C50.6793 22.1879 48.6925 24.1746 48.6925 26.6254H51.6509ZM51.6509 29.5837V26.6254H48.6925V29.5837H51.6509ZM53.13 31.0629C52.3131 31.0629 51.6509 30.4006 51.6509 29.5837H48.6925C48.6925 32.0345 50.6793 34.0212 53.13 34.0212V31.0629ZM54.6092 29.5837C54.6092 30.4006 53.9469 31.0629 53.13 31.0629V34.0212C55.5808 34.0212 57.5675 32.0345 57.5675 29.5837H54.6092ZM54.6092 26.6254V29.5837H57.5675V26.6254H54.6092ZM53.13 39.9379C53.9469 39.9379 54.6092 40.6001 54.6092 41.417H57.5675C57.5675 38.9663 55.5808 36.9795 53.13 36.9795V39.9379ZM51.6509 41.417C51.6509 40.6001 52.3131 39.9379 53.13 39.9379V36.9795C50.6793 36.9795 48.6925 38.9663 48.6925 41.417H51.6509ZM51.6509 44.3754V41.417H48.6925V44.3754H51.6509ZM53.13 45.8545C52.3131 45.8545 51.6509 45.1923 51.6509 44.3754H48.6925C48.6925 46.8261 50.6792 48.8129 53.13 48.8129V45.8545ZM54.6092 44.3754C54.6092 45.1923 53.9469 45.8545 53.13 45.8545V48.8129C55.5808 48.8129 57.5675 46.8261 57.5675 44.3754H54.6092ZM54.6092 41.417V44.3754H57.5675V41.417H54.6092ZM56.8279 11.8333C55.6026 11.8333 54.6092 12.8267 54.6092 14.0521H57.5675C57.5675 14.4605 57.2364 14.7917 56.8279 14.7917V11.8333ZM54.6092 56.9479C54.6092 58.1733 55.6026 59.1667 56.8279 59.1667V56.2083C57.2364 56.2083 57.5675 56.5395 57.5675 56.9479H54.6092ZM49.4321 59.1667C50.6575 59.1667 51.6509 58.1733 51.6509 56.9479H48.6925C48.6925 56.5395 49.0236 56.2083 49.4321 56.2083V59.1667ZM49.4321 14.7917C49.0236 14.7917 48.6925 14.4605 48.6925 14.0521H51.6509C51.6509 12.8267 50.6575 11.8333 49.4321 11.8333V14.7917Z" fill="black"/>
</svg>
